<svg width="512" height="512" viewBox="0 0 512 512" fill="none" xmlns="http://www.w3.org/2000/svg">
<g clip-path="url(#clip0_1_3)">
<path d="M256 512C397.385 512 512 397.385 512 256C512 114.615 397.385 0 256 0C114.615 0 0 114.615 0 256C0 397.385 114.615 512 256 512Z" fill="#4B8F8C"/>
<path d="M256 448C362.039 448 448 362.039 448 256C448 149.961 362.039 64 256 64C149.961 64 64 149.961 64 256C64 362.039 149.961 448 256 448Z" fill="black" fill-opacity="0.227451"/>
<g filter="url(#filter0_f_1_3)">
<path d="M66.039 244.377C73.5606 230.895 81.0821 217.416 88.5575 204.686C96.0332 191.955 103.462 179.983 110.805 169.428C118.147 158.873 125.402 149.749 132.539 142.558C139.676 135.366 146.693 130.123 153.574 127.119C160.455 124.115 167.198 123.365 173.799 124.918C180.401 126.471 186.862 130.339 193.193 136.325C199.524 142.311 205.724 150.423 211.821 160.237C217.917 170.052 223.91 181.573 229.834 194.197C235.759 206.82 241.617 220.546 247.45 234.655C253.284 248.763 259.094 263.25 264.93 277.361C270.764 291.469 276.621 305.194 282.546 317.82C288.47 330.443 294.462 341.961 300.561 351.778C306.657 361.595 312.858 369.701 319.188 375.69C325.518 381.68 331.979 385.539 338.58 387.098C345.184 388.655 351.926 387.897 358.807 384.896C365.687 381.896 372.704 376.646 379.84 369.457C386.979 362.272 394.234 353.138 401.576 342.588C408.918 332.034 416.347 320.058 423.822 307.328C431.297 294.601 438.821 281.122 446.342 267.638" stroke="#C03221" stroke-width="4.53543"/>
</g>
<path d="M56.3908 284.191C51.8668 284.191 47.7275 283.645 43.9729 282.552C40.2491 281.46 37.0023 279.774 34.2325 277.495C31.4935 275.216 29.37 272.343 27.862 268.878C26.354 265.413 25.6 261.354 25.6 256.702C25.6 251.801 26.4002 247.571 28.0005 244.012C29.6316 240.453 31.8936 237.502 34.7865 235.161C37.587 232.944 40.8184 231.321 44.4807 230.291C48.143 229.26 51.9437 228.745 55.883 228.745C59.4222 228.745 62.6844 229.136 65.6696 229.916C68.6548 230.697 71.44 231.711 74.0251 232.96V247.337H71.6708C71.0245 246.775 70.2397 246.119 69.3165 245.37C68.424 244.621 67.3161 243.887 65.9927 243.169C64.7309 242.482 63.346 241.92 61.838 241.483C60.33 241.015 58.5758 240.78 56.5754 240.78C52.1438 240.78 48.7277 242.217 46.3272 245.089C43.9575 247.93 42.7727 251.801 42.7727 256.702C42.7727 261.76 43.9883 265.6 46.4196 268.222C48.8816 270.845 52.3592 272.156 56.8524 272.156C58.9451 272.156 60.8224 271.922 62.4843 271.454C64.177 270.954 65.5772 270.377 66.6851 269.721C67.7315 269.097 68.6548 268.441 69.4549 267.754C70.2551 267.067 70.9937 266.396 71.6708 265.741H74.0251V280.117C71.4092 281.366 68.6702 282.349 65.8081 283.067C62.9767 283.817 59.8376 284.191 56.3908 284.191Z" fill="white"/>
<path d="M137.038 282.786H120.327V256.702C120.327 254.58 120.219 252.472 120.004 250.381C119.788 248.258 119.419 246.697 118.896 245.698C118.28 244.542 117.372 243.7 116.172 243.169C115.003 242.638 113.356 242.373 111.233 242.373C109.725 242.373 108.186 242.622 106.616 243.122C105.077 243.621 103.4 244.418 101.584 245.51V282.786H84.9657V209.92H101.584V236.004C104.539 233.662 107.37 231.867 110.078 230.619C112.817 229.37 115.849 228.745 119.173 228.745C124.774 228.745 129.144 230.4 132.283 233.709C135.453 237.019 137.038 241.967 137.038 248.554V282.786Z" fill="white"/>
<path d="M205.359 256.515C205.359 265.163 202.866 271.984 197.881 276.98C192.926 281.943 185.955 284.425 176.969 284.425C167.982 284.425 160.996 281.943 156.011 276.98C151.056 271.984 148.578 265.163 148.578 256.515C148.578 247.805 151.071 240.968 156.057 236.004C161.073 231.04 168.044 228.558 176.969 228.558C186.017 228.558 193.003 231.056 197.927 236.051C202.882 241.046 205.359 247.867 205.359 256.515ZM184.909 269.299C185.986 267.957 186.786 266.349 187.309 264.476C187.863 262.572 188.14 259.949 188.14 256.609C188.14 253.518 187.863 250.927 187.309 248.835C186.755 246.743 185.986 245.073 185.001 243.824C184.016 242.544 182.832 241.639 181.447 241.108C180.062 240.578 178.569 240.312 176.969 240.312C175.368 240.312 173.937 240.531 172.676 240.968C171.445 241.405 170.26 242.279 169.121 243.59C168.105 244.808 167.29 246.478 166.674 248.601C166.09 250.724 165.797 253.393 165.797 256.609C165.797 259.481 166.059 261.979 166.582 264.101C167.105 266.193 167.875 267.879 168.89 269.159C169.875 270.377 171.045 271.266 172.399 271.828C173.784 272.39 175.353 272.671 177.107 272.671C178.615 272.671 180.046 272.421 181.4 271.922C182.785 271.391 183.955 270.517 184.909 269.299Z" fill="white"/>
<path d="M300.04 230.197L283.975 282.786H266.341L255.769 247.337L245.382 282.786H227.517L211.591 230.197H229.041L237.904 266.443L248.983 230.197H263.709L274.234 266.443L282.959 230.197H300.04Z" fill="white"/>
<path d="M360.467 282.786H343.848V277.307C340.986 279.68 338.309 281.428 335.816 282.552C333.323 283.676 330.446 284.238 327.183 284.238C320.875 284.238 315.827 281.772 312.042 276.839C308.257 271.906 306.364 265.257 306.364 256.89C306.364 252.425 306.995 248.476 308.257 245.042C309.549 241.577 311.303 238.611 313.519 236.144C315.612 233.803 318.151 231.992 321.136 230.712C324.121 229.401 327.107 228.745 330.092 228.745C333.2 228.745 335.739 229.089 337.709 229.776C339.709 230.431 341.756 231.274 343.848 232.304V209.92H360.467V282.786ZM343.848 268.269V242.466C342.679 241.967 341.448 241.608 340.155 241.389C338.863 241.171 337.678 241.061 336.601 241.061C332.231 241.061 328.953 242.451 326.768 245.229C324.583 247.977 323.49 251.801 323.49 256.702C323.49 261.854 324.368 265.6 326.122 267.941C327.876 270.252 330.692 271.407 334.57 271.407C336.078 271.407 337.678 271.126 339.371 270.564C341.063 269.971 342.556 269.206 343.848 268.269Z" fill="white"/>
<path d="M421.218 266.115C421.218 271.547 418.817 275.934 414.016 279.274C409.215 282.583 402.645 284.238 394.305 284.238C389.688 284.238 385.503 283.801 381.748 282.927C377.994 282.053 374.978 281.085 372.7 280.023V266.162H374.224C375.055 266.755 376.009 267.411 377.086 268.129C378.194 268.816 379.748 269.565 381.748 270.377C383.472 271.095 385.426 271.719 387.611 272.25C389.796 272.749 392.135 272.999 394.628 272.999C397.89 272.999 400.306 272.64 401.875 271.922C403.445 271.173 404.23 270.08 404.23 268.644C404.23 267.364 403.768 266.443 402.845 265.881C401.922 265.288 400.167 264.726 397.582 264.195C396.351 263.914 394.674 263.618 392.55 263.305C390.458 262.962 388.55 262.556 386.826 262.088C382.118 260.839 378.625 258.903 376.347 256.281C374.07 253.627 372.931 250.334 372.931 246.4C372.931 241.342 375.285 237.143 379.994 233.803C384.734 230.431 391.196 228.745 399.383 228.745C403.26 228.745 406.969 229.151 410.508 229.963C414.078 230.743 416.863 231.586 418.863 232.492V245.791H417.432C414.97 244.074 412.154 242.685 408.984 241.623C405.845 240.531 402.66 239.984 399.429 239.984C396.751 239.984 394.489 240.359 392.643 241.108C390.827 241.858 389.919 242.919 389.919 244.293C389.919 245.541 390.335 246.494 391.166 247.149C391.997 247.805 393.951 248.46 397.028 249.116C398.721 249.46 400.537 249.803 402.475 250.146C404.445 250.459 406.415 250.864 408.384 251.364C412.754 252.519 415.986 254.345 418.079 256.843C420.171 259.309 421.218 262.4 421.218 266.115Z" fill="white"/>
<path d="M486.4 255.766C486.4 260.105 485.738 264.055 484.415 267.614C483.122 271.173 481.414 274.107 479.291 276.418C477.075 278.853 474.567 280.695 471.766 281.943C468.966 283.192 465.965 283.817 462.764 283.817C459.81 283.817 457.302 283.489 455.24 282.833C453.178 282.209 451.07 281.319 448.916 280.164V302.08H432.297V230.197H448.916V235.676C451.47 233.616 454.07 231.945 456.717 230.665C459.395 229.385 462.472 228.745 465.95 228.745C472.413 228.745 477.429 231.149 480.999 235.957C484.6 240.765 486.4 247.368 486.4 255.766ZM469.273 256.094C469.273 250.974 468.412 247.259 466.688 244.948C464.965 242.638 462.241 241.483 458.517 241.483C456.948 241.483 455.332 241.733 453.67 242.232C452.009 242.701 450.424 243.387 448.916 244.293V270.751C450.023 271.188 451.208 271.469 452.47 271.594C453.732 271.719 454.978 271.781 456.209 271.781C460.61 271.781 463.888 270.486 466.042 267.895C468.196 265.272 469.273 261.339 469.273 256.094Z" fill="white"/>
</g>
<defs>
<filter id="filter0_f_1_3" x="61.0657" y="118.87" width="390.25" height="274.277" filterUnits="userSpaceOnUse" color-interpolation-filters="sRGB">
<feFlood flood-opacity="0" result="BackgroundImageFix"/>
<feBlend mode="normal" in="SourceGraphic" in2="BackgroundImageFix" result="shape"/>
<feGaussianBlur stdDeviation="1.49646" result="effect1_foregroundBlur_1_3"/>
</filter>
<clipPath id="clip0_1_3">
<rect width="512" height="512" fill="white"/>
</clipPath>
</defs>
</svg>
